<?xml version="1.0" encoding="UTF-8" standalone="no"?><!DOCTYPE svg PUBLIC "-//W3C//DTD SVG 1.1//EN" "http://www.w3.org/Graphics/SVG/1.1/DTD/svg11.dtd"><svg width="100%" height="100%" viewBox="0 0 2134 2134" version="1.1" xmlns="http://www.w3.org/2000/svg" xmlns:xlink="http://www.w3.org/1999/xlink" xml:space="preserve" xmlns:serif="http://www.serif.com/" style="fill-rule:evenodd;clip-rule:evenodd;stroke-linecap:round;stroke-linejoin:round;stroke-miterlimit:1.5;"><g id="ILUSTRACION"><path d="M1440.844,139.294c-2.462,1.466 -7.463,4.775 -5.544,10.702c2.597,8.021 7.133,4.231 26.245,5.403c11.533,0.691 17.62,1.906 22.601,3.539c5.776,1.885 10.583,4.733 11.553,3.121c0.853,-1.403 -6.513,-11.749 -23.357,-18.472c-7.346,-2.932 -25.741,-7.393 -31.518,-4.272l0.019,-0.021Z" style="stroke:#000;stroke-width:2.18px;"/><path d="M1413.979,274.775c4.071,-2.911 7.269,1.822 28.765,2.011c19.287,0.147 25.916,-5.927 28.339,-6.597c2.908,-0.817 5.156,-3.225 9.479,0.188c2.791,2.178 7.405,1.194 8.509,-1.738c0.814,-2.178 0.543,-5.257 -3.974,-7.058c-6.668,-2.66 -28.92,-11.456 -34.6,-6.157c-1.609,1.508 -8.509,3.895 -13.704,1.529c-3.683,-1.675 -2.714,-3.812 -19.325,5.068c-3.954,2.115 -11.63,4.817 -11.359,9.173c0.233,4.042 5.02,5.676 7.87,3.623l0,-0.042Z" style="stroke:#000;stroke-width:1.31px;"/><path d="M1414.173,279.278c-0.155,-0.377 -1.415,-2.995 -0.291,-5.047c0.756,-1.382 1.589,-1.466 3.722,-0.942c3.276,0.817 9.692,3.498 18.182,3.56c9.847,0.084 15.953,-1.382 21.729,-3.121c8.238,-2.45 14.15,-4.377 17.096,-4.943c3.043,-0.586 7.695,0.042 6.823,4.461c-1.357,6.765 -14.228,20.105 -28.416,23.624c-13.898,3.435 -31.595,-0.984 -38.806,-17.592l-0.039,0Z" style="fill:none;stroke:#000;stroke-width:2.18px;"/><path d="M1455.692,312.012c0,0.021 0.019,0.147 -0.097,0.335c-3.353,5.34 -2.171,10.346 0.252,17.006c-5.098,2.178 -15.41,-0.063 -16.088,-0.188c3.334,-6.974 2.656,-11.393 -1.008,-16.859c5.97,0.377 11.572,-0.042 16.941,-0.293Z" style="stroke:#000;stroke-width:0.87px;"/><path d="M1445.69,302.608c5.893,-0.021 13.549,-2.325 14.46,-0.67c1.531,2.764 -3.334,5.676 -7.133,13.906c-0.33,0.691 -1.783,5.676 -4.187,5.738c-3.877,0.105 -6.823,-7.183 -12.813,-13.257c-2.229,-2.241 -2.132,-5.697 1.163,-5.99c1.551,-0.126 5.563,0.293 8.529,0.293l-0.019,-0.021Z" style="stroke:#000;stroke-width:2.18px;"/><path d="M1621.093,594.304c-0.717,1.592 -18.259,41.593 -31.402,65.866c-5.738,10.597 -17.775,32.713 -31.75,55.772c-10.39,17.131 -44.272,68.149 -55.767,82.202" style="fill:none;stroke:#000;stroke-width:3.91px;"/><path d="M889.186,1304.758c-0.388,-2.618 -1.027,-5.215 -3.508,-5.32c-2.966,-0.105 -6.474,1.634 -6.474,10.597c0,3.414 2.404,6.576 5.893,5.424c2.675,-0.901 4.885,-5.32 4.09,-10.702Z" style="fill:none;stroke:#000;stroke-width:0.87px;"/><path d="M875.52,1279.564c-2.307,2.136 -15.391,14.828 6.242,41.551c6.222,7.686 24.365,19.1 26.633,20.461c10.506,6.325 17.251,8.231 14.189,10.178c-3.896,2.45 -21.4,-3.309 -23.202,-3.916c-6.009,-1.969 -28.552,-9.11 -39.504,-22.598c-11.708,-14.409 -16.36,-39.373 -34.522,-38.493c-16.534,0.796 -21.012,14.095 -35.491,29.886c-1.396,1.508 -12.057,13.152 -17.697,18.556c-5.447,5.215 -10.932,7.435 -8.296,8.943c2.869,1.655 17.969,-2.22 20.857,4.545c1.803,4.231 -0.252,5.361 -7.23,13.927" style="fill:none;stroke:#000;stroke-width:1.31px;"/><path d="M824.968,1315.795c-0.116,-2.66 -0.485,-5.32 -2.946,-5.697c-2.946,-0.461 -6.61,0.88 -7.501,9.76c-0.349,3.393 1.725,6.827 5.311,6.094c2.752,-0.565 5.389,-4.712 5.137,-10.157Z" style="fill:none;stroke:#000;stroke-width:0.87px;"/><path d="M1391.998,316.661c-3.179,-11.288 3.412,-11.058 12.813,-5.131c11.65,7.33 16.011,12.88 40.105,12.922c14.828,0.021 26.653,-1.131 36.887,-6.639c4.555,-2.45 23.997,-14.346 35.375,-12.587c5.776,0.901 9.324,3.623 9.576,11.079c0.058,1.717 -30.374,32.231 -71.545,32.231c-29.056,0 -44.602,-6.094 -63.21,-31.875Z" style="stroke:#000;stroke-width:2.18px;"/><path d="M1520.996,94.475c-3.547,29.572 -4.439,36.902 5.059,51.457c13.297,20.42 11.708,26.346 12.115,45.656c0.368,17.844 4.167,19.163 13.026,24.566c0.136,-2.388 -0.271,-15.875 4.167,-28.022c3.78,-10.325 11.417,-19.519 22.369,-22.011c19.829,-4.503 19.636,20.357 21.574,29.341c0.523,-1.948 11.94,-30.745 13.394,-59.876c1.841,-37.132 -0.174,-72.861 -28.281,-89.239c-32.468,-18.933 -46.172,18.87 -63.423,48.106l-0,0.021Z" style="stroke:#000;stroke-width:3.47px;"/><path d="M798.703,2006.353c-1.163,-0.545 -3.063,-1.969 -4.167,-2.66" style="fill:none;stroke:#000;stroke-width:1.31px;"/><path d="M1247.628,595.414c5.311,26.472 23.609,30.347 31.867,49.572" style="fill:none;stroke:#000;stroke-width:1.31px;"/><path d="M874.745,1178.513c-0.291,1.215 -0.892,2.89 -1.124,4.147" style="fill:none;stroke:#000;stroke-width:1.31px;"/><path d="M1137.781,684.297c-11.979,2.241 -30.18,5.424 -48.052,17.76" style="fill:none;stroke:#000;stroke-width:1.31px;"/><path d="M1161.545,668.548c1.841,-2.639 13.782,-1.927 14.596,0.168c0.523,1.34 -5.117,8.126 -6.901,8.126c-2.365,0 -7.153,-5.948 -7.695,-8.293Z" style="stroke:#000;stroke-width:1.31px;"/><path d="M732.721,877.414c0,0 -0.252,-20.461 -0.252,-29.781c0,-13.55 1.919,-27.163 1.919,-27.163" style="fill:none;stroke:#000;stroke-width:2.18px;"/><path d="M1191.319,643.5c0.64,-2.995 1.628,-5.403 3.935,-5.236c0.582,0.042 3.605,-0.565 4.109,5.759c0.078,0.963 -0.039,5.717 -1.473,7.163c-1.376,1.382 -3.508,0.838 -3.819,0.754c-3.392,-1.047 -2.83,-7.623 -2.733,-8.44l-0.019,0Z" style="stroke:#000;stroke-width:1.31px;"/><path d="M1134.428,645.385c0.64,-2.995 1.628,-5.403 3.935,-5.236c0.582,0.042 3.605,-0.565 4.109,5.759c0.078,0.963 -0.039,5.717 -1.473,7.163c-1.376,1.382 -3.508,0.838 -3.819,0.754c-3.392,-1.047 -2.83,-7.623 -2.733,-8.44l-0.019,0Z" style="stroke:#000;stroke-width:1.31px;"/><path d="M1621.771,871.906c-3.896,2.953 -9.052,6.66 -13.569,9.843c-2.423,1.696 -2.423,1.738 -4.904,3.812c3.315,5.299 19.384,22.346 31.983,63.248c5.912,19.226 6.067,23.289 12.541,40.881c10.835,-3.414 10.448,-4.105 20.682,-8.964c-5.66,-14.912 -6.978,-22.304 -12.58,-36.944c-2.384,-6.262 -5.951,-13.571 -16.592,-35.645c-15.274,-31.729 -14.654,-30.116 -17.562,-36.232Z" style="fill:none;stroke:#000;stroke-width:2.18px;"/><path d="M1836.833,1849.029c0.64,-2.995 1.628,-5.403 3.935,-5.236c0.582,0.042 3.605,-0.565 4.109,5.759c0.078,0.963 -0.039,5.717 -1.473,7.163c-1.376,1.382 -3.508,0.838 -3.819,0.754c-3.392,-1.047 -2.83,-7.623 -2.733,-8.44l-0.019,0Z" style="stroke:#000;stroke-width:1.31px;"/><path d="M1544.276,979.972c-13.762,6.723 -37.294,6.597 -44.311,6.241c-3.915,-0.209 -5.098,7.393 8.684,13.089c6.338,2.618 25.955,3.016 41.345,1.026" style="fill:none;stroke:#000;stroke-width:2.18px;"/><path d="M1549.994,1000.434c-7.657,2.702 -19.054,3.435 -26.401,3.498c-1.357,0.021 -5.99,2.157 0.795,5.969c0.814,0.461 2.966,1.466 5.738,2.052c7.986,1.675 14.635,0.67 21.438,0c3.877,-0.377 23.435,-2.304 46.346,-16.001c3.683,-2.199 38.535,-27.394 41.772,-29.718c-3.14,-15.917 -4.923,-18.995 -7.753,-25.99c-9.653,-23.833 -21.225,-46.242 -25.548,-49.384c-0.853,-0.628 -3.16,-0.524 -5.079,-0.524" style="fill:none;stroke:#000;stroke-width:2.18px;"/><path d="M1603.299,890.336c-5.253,0.293 -36.713,-0.314 -42.179,-0.398c-15.197,-0.23 -55.185,17.927 -57.666,20.273c-1.938,1.843 -2.423,6.43 7.521,9.047c0.523,0.147 15.72,3.665 36.383,-4.356" style="fill:none;stroke:#000;stroke-width:2.18px;"/><path d="M1534.933,955.532c-2.811,0.754 -19.325,5.236 -35.802,6.325c-7.308,0.482 -24.869,1.655 -29.657,-12.859c-1.997,-6.032 8.587,-6.513 18.473,-7.163c20.469,-1.382 24.869,-2.408 39.523,-11.079c12.27,-7.246 13.976,-8.712 19.849,-15.645" style="fill:none;stroke:#000;stroke-width:2.18px;"/><path d="M1534.797,955.678c-8.723,6.723 -34.755,11.519 -50.223,9.11c-1.454,-0.23 -8.471,-2.534 -7.947,3.288c0.349,3.833 9.983,13.383 29.89,13.885c11.32,0.293 12.851,1.424 37.527,-2.974" style="fill:none;stroke:#000;stroke-width:2.18px;"/><path d="M1850.46,1868.904c1.919,-2.576 13.821,-1.466 14.596,0.67c0.485,1.34 -5.35,7.958 -7.133,7.896c-2.365,-0.084 -6.978,-6.199 -7.463,-8.545l0,-0.021Z" style="stroke:#000;stroke-width:1.31px;"/><path d="M1881.454,1853.301c0.64,-2.995 1.628,-5.403 3.935,-5.236c0.582,0.042 3.605,-0.565 4.109,5.759c0.078,0.963 -0.039,5.717 -1.473,7.163c-1.376,1.382 -3.508,0.838 -3.819,0.754c-3.392,-1.047 -2.83,-7.623 -2.733,-8.44l-0.019,0Z" style="stroke:#000;stroke-width:1.31px;"/><path d="M1378.759,182.52c0.95,-4.524 2.481,-8.147 5.931,-7.917c0.892,0.063 5.427,-0.838 6.222,8.712c0.116,1.466 -0.039,8.629 -2.229,10.828c-2.093,2.094 -5.292,1.278 -5.776,1.131c-5.117,-1.571 -4.264,-11.498 -4.129,-12.733l-0.019,-0.021Z" style="stroke:#000;stroke-width:1.31px;"/><path d="M1442.918,179.965c0.95,-4.524 2.481,-8.147 5.931,-7.917c0.892,0.063 5.427,-0.838 6.222,8.712c0.116,1.466 -0.039,8.629 -2.229,10.828c-2.093,2.094 -5.292,1.278 -5.776,1.131c-5.117,-1.571 -4.264,-11.498 -4.129,-12.733l-0.019,-0.021Z" style="stroke:#000;stroke-width:1.31px;"/><path d="M1155.866,298.106c4.788,0.984 5.389,6.953 5.486,10.639c0.019,0.963 0.252,9.257 -4.633,9.948c-8.199,1.173 -8.897,-14.535 -7.211,-17.341c1.57,-2.618 3.974,-3.728 6.358,-3.246Z" style="stroke:#000;stroke-width:1.31px;"/><path d="M1101.611,311.761c4.788,0.984 5.389,6.953 5.486,10.639c0.019,0.963 0.252,9.257 -4.633,9.948c-8.199,1.173 -8.897,-14.535 -7.211,-17.341c1.57,-2.618 3.974,-3.728 6.358,-3.246Z" style="stroke:#000;stroke-width:1.31px;"/><path d="M1740.729,1968.007c12.929,38.535 22.815,53.175 32.332,67.814c2.752,4.231 24.501,35.792 22.563,52.253c-0.426,3.602 -2.966,25.174 -32.39,28.922c-20.954,2.66 -55.224,3.791 -84.823,-25.362c-6.823,-6.723 -6.939,-9.927 -6.746,-21.257c0.097,-4.964 1.919,-10.639 -1.861,-12.754c-15.836,-8.88 -18.899,-14.828 -19.907,-26.744c-0.523,-6.178 -1.144,-47.373 0.543,-73.573c0.136,-2.157 16.205,8.922 37.546,13.487c12.347,2.639 24.792,1.822 27.796,1.613c18.318,-1.194 21.942,-5.759 23.978,-7.204c0.407,1.361 0.426,1.257 0.93,2.785l0.039,0.021Z" style="stroke:#000;stroke-width:1.31px;"/><path d="M1138.75,675.585c-26.904,-1.864 -39.368,-0.67 -53.15,1.152" style="fill:none;stroke:#000;stroke-width:1.31px;"/><path d="M1201.611,671.312c18.182,-3.665 18.88,-3.581 41.849,-3.581" style="fill:none;stroke:#000;stroke-width:1.31px;"/><path d="M1202.232,675.585c12.793,1.571 18.783,2.031 36.732,6.974" style="fill:none;stroke:#000;stroke-width:1.31px;"/><path d="M1202.232,680.276c2.423,0.712 18.725,5.864 32.08,15.184" style="fill:none;stroke:#000;stroke-width:1.31px;"/><path d="M1137.781,680.276c-3.799,0.126 -23.512,1.34 -51.696,10.534" style="fill:none;stroke:#000;stroke-width:1.31px;"/><path d="M1532.548,1965.054l0,70.453c0,8.419 -15.759,13.55 -20.973,15.288c-8.257,2.764 -19.888,3.351 -24.734,3.141c-5.679,-0.23 -4.303,-1.843 -6.222,-5.194c-4.691,-8.126 -7.036,3.414 -21.206,13.027c-23.881,16.231 -36.713,21.404 -63.385,22.221c-4.788,0.147 -40.783,1.236 -59.876,-2.764c-2.597,-0.545 -34.658,-7.246 -14.577,-32.064c18.88,-23.31 33.34,-20.943 69.917,-50.368" style="stroke:#000;stroke-width:1.31px;"/><path d="M1390.932,1998.96c9.072,-8.964 17.678,-18.786 24.83,-27.771c9.11,-11.435 8.044,-12.105 9.013,-15.372c1.977,0.628 2.074,0.042 24.83,6.807c16.825,5.005 35.433,3.33 43.245,3.079c20.779,-0.628 36.519,-2.429 39.698,-3.079c-5.505,10.241 -5.621,12.252 -49.409,23.393c-25.819,6.576 -55.321,3.204 -91.006,13.194c-0.911,0.251 -1.085,-0.314 -1.163,-0.272" style="stroke:#000;stroke-width:1.31px;"/><path d="M1632.374,339.761c26.362,64.589 28.688,70.809 42.47,100.611c-6.726,5.445 -18.996,11.519 -34.522,20.147c7.036,8.964 27.854,29.362 30.238,31.75c-33.34,69.594 -33.224,73.908 -44.737,93.637" style="fill:none;stroke:#000;stroke-width:3.91px;"/><path d="M1603.841,375.888c-25.431,43.101 -36.984,64.61 -38.225,66.138" style="fill:none;stroke:#000;stroke-width:3.91px;"/><path d="M1499.15,440.435l0.136,168.676l-0.058,8.608" style="fill:none;stroke:#000;stroke-width:3.91px;"/><path d="M1431.521,407.282c5.718,12.985 20.314,35.771 22.117,38.724" style="fill:none;stroke:#000;stroke-width:3.91px;"/><path d="M1511.692,716.905c2.985,-0.105 4.303,1.529 4.478,3.414c0.291,2.974 -1.241,5.278 -4.342,5.236c-3.625,-0.042 -5.156,-1.696 -5.02,-4.733c0.174,-3.916 4.478,-3.895 4.865,-3.916l0.019,0Z" style="fill:none;stroke:#000;stroke-width:1.31px;"/><path d="M1510.703,565.696c2.985,-0.105 4.303,1.529 4.478,3.414c0.291,2.974 -1.241,5.278 -4.342,5.236c-3.625,-0.042 -5.156,-1.696 -5.02,-4.733c0.174,-3.916 4.478,-3.895 4.865,-3.916l0.019,0Z" style="fill:none;stroke:#000;stroke-width:1.31px;"/><path d="M1511.692,493.777c2.985,-0.105 4.303,1.529 4.478,3.414c0.291,2.974 -1.241,5.278 -4.342,5.236c-3.625,-0.042 -5.156,-1.696 -5.02,-4.733c0.174,-3.916 4.478,-3.895 4.865,-3.916l0.019,0Z" style="fill:none;stroke:#000;stroke-width:1.31px;"/><path d="M1510.703,654.809c2.985,-0.105 4.303,1.529 4.478,3.414c0.291,2.974 -1.241,5.278 -4.342,5.236c-3.625,-0.042 -5.156,-1.696 -5.02,-4.733c0.174,-3.916 4.478,-3.895 4.865,-3.916l0.019,0Z" style="fill:none;stroke:#000;stroke-width:1.31px;"/><path d="M1521.035,820.113c6.726,-0.084 10.215,3.602 10.739,8.733c0.795,7.728 -3.392,13.508 -10.739,13.969c-8.8,0.545 -12.173,-4.189 -11.998,-12.147c0.213,-9.801 11.029,-10.513 11.998,-10.534l0,-0.021Z" style="fill:none;stroke:#000;stroke-width:2.18px;"/><path d="M1698.104,951.134c0.95,-0.377 7.017,-1.403 9.324,2.66c3.315,5.822 0.853,9.403 -3.295,11.812c-5.524,3.204 -12.987,1.885 -13.569,-3.77c-0.853,-8.084 6.61,-10.346 7.54,-10.702Z" style="fill:none;stroke:#000;stroke-width:2.18px;"/><path d="M1720.609,940.746c0.95,-0.377 6.61,-1.403 8.916,2.66c3.315,5.822 1.26,9.403 -2.888,11.812c-5.524,3.204 -12.987,1.885 -13.569,-3.77c-0.853,-8.084 6.61,-10.346 7.54,-10.702Z" style="fill:none;stroke:#000;stroke-width:2.18px;"/><path d="M998.025,411.157c4.148,-5.592 10.758,-5.236 14.073,-1.215c3.683,4.461 3.47,13.048 -4.303,15.163c-7.54,2.052 -10.739,-2.848 -11.301,-3.372c-0.659,-0.628 -0.892,-5.152 -0.543,-6.388c0.989,-3.372 0.911,-3.225 1.202,-3.456" style="fill:none;stroke:#000;stroke-width:2.18px;"/><path d="M889.709,1651.807c-9.304,84.694 -11.669,120.674 -14.945,161.869c-6.881,86.558 -11.126,126.706 -16.709,190.059" style="fill:none;stroke:#000;stroke-width:2.18px;"/><path d="M1415.859,1219.268c0,52.463 2.559,85.26 3.974,128.046c0.233,7.204 4.264,134.183 9.091,212.154c0.795,12.712 2.404,21.697 10.68,136.884c9.44,131.649 6.959,157.241 10.448,235.862" style="fill:none;stroke:#000;stroke-width:2.18px;"/><path d="M1292.579,990.067c6.726,-4.293 42.799,-32.839 43.962,-33.844" style="fill:none;stroke:#000;stroke-width:2.18px;"/><path d="M1695.041,1687.096c3.179,85.28 6.338,170.561 9.517,255.841" style="fill:none;stroke:#000;stroke-width:1.31px;"/><path d="M1667.536,1218.431c2.229,22.786 6.687,67.856 6.707,68.379c2.345,37.635 4.827,81.469 6.3,113.952c1.26,28.001 5.466,83.437 7.443,121.742c3.373,65.364 2.733,88.212 4.09,132.319" style="fill:none;stroke:#000;stroke-width:2.18px;"/><path d="M1768.564,1179.33c-0.833,180.006 -2.578,287.382 -4.555,366.714c-2.423,97.804 -4.536,141.597 -5.796,190.918c-2.249,88.192 -0.814,165.828 -2.093,211.463c-0.233,8.021 -16.806,24.818 -47.994,23.833c-33.34,-1.047 -52.355,-13.027 -69.994,-24.378c-1.997,-45.363 -7.23,-100.339 -11.785,-145.22c-4.419,-43.52 -6.532,-73.929 -9.944,-101.888c-3.741,-30.535 -15.429,-93.323 -17.562,-118.706c-3.45,-41.132 -8.161,-71.5 -11.533,-92.569c-25.431,-159.398 -14.693,-172.718 -29.773,-196.028" style="fill:none;stroke:#000;stroke-width:3.91px;"/><path d="M1353.928,1175.874c3.47,74.851 9.789,139.816 20.062,226.332c13.297,112.067 21.845,198.436 27.544,269.015c15.468,191.546 18.473,270.397 19.112,281.539c27.602,11.686 51.871,12.44 61.155,12.775c27.195,0.984 51.289,-2.367 55.709,-2.974c-2.365,-57.594 1.144,-107.941 3.857,-164.11c4.73,-97.49 2.559,-135.565 2.384,-193.117c-0.155,-53.426 2.733,-97.323 4.555,-122.538c2.5,-34.849 2.268,-113.491 7.501,-174.791c7.443,-86.977 -24.171,-105.616 -39.543,-113.973" style="fill:none;stroke:#000;stroke-width:3.91px;"/><path d="M1767.323,724.403c-7.346,22.074 -5.602,35.771 -4.73,39.164" style="fill:none;stroke:#000;stroke-width:3.91px;"/><path d="M1689.944,722.016c-23.919,27.163 -70.13,59.353 -100.485,75.751" style="fill:none;stroke:#000;stroke-width:2.18px;"/><path d="M1786.881,748.99c16.747,-1.843 55.825,3.267 65.478,6.555" style="fill:none;stroke:#000;stroke-width:2.18px;"/><path d="M1783.896,758.226c19.597,1.382 50.281,16.713 62.066,28.545" style="fill:none;stroke:#000;stroke-width:2.18px;"/><path d="M1788.955,429c-6.106,11.728 -44.117,84.673 -44.117,161.367" style="fill:none;stroke:#000;stroke-width:2.18px;"/><path d="M1621.093,596.671l0,20.357c32.409,-2.408 32.448,-0.921 94.999,-3.56c0,-13.864 -0.116,-13.697 -0.039,-27.561c-42.644,0 -77.728,1.236 -94.941,0.838l0,9.927l-0.019,0Z" style="fill:none;stroke:#000;stroke-width:3.91px;"/><path d="M1632.49,586.597c12.289,-10.451 43.943,-34.954 46.734,-35.959c3.857,-1.382 6.028,-0.733 7.191,3.539c0.756,2.848 0.31,10.953 0.252,11.896c9.769,-10.828 12.948,-13.613 15.546,-11.058c3.528,3.498 4.245,16.692 6.048,30.87" style="fill:none;stroke:#000;stroke-width:2.18px;"/><path d="M1504.655,769.263c0,15.98 -4.458,36.357 -6.3,53.07c-1.997,18.053 -1.318,91.919 -1.609,108.276l-0.078,9.466" style="fill:none;stroke:#000;stroke-width:3.91px;"/><path d="M1672.576,990.339c-3.741,-10.199 -14.79,-41.635 -23.202,-61.531c-9.692,-22.912 -17.736,-33.572 -28.552,-58.913c4.323,-2.827 9.692,-8.168 64.916,-46.871c16.302,-11.414 34.193,-24.839 50.553,-37.593c15.74,-12.273 28.378,-21.969 33.068,-29.446c4.885,-7.791 2.345,-16.44 -0.31,-25.572c-5.292,-18.158 -18.783,-72.777 -32.061,-96.38" style="fill:none;stroke:#000;stroke-width:3.91px;"/><path d="M1340.805,889.393c0,25.132 -1.551,50.389 -3.082,72.065c-7.56,107.522 -8.005,179.86 -8.064,200.028c0,2.513 -0.426,3.162 2.946,4.691c23.822,10.849 47.8,14.66 67.339,16.587c4.381,0.44 27.757,2.785 48.304,2.325c22.156,-0.482 27.719,-2.283 34.251,-12.775c8.199,-13.152 22.97,-67.227 26.749,-99.564" style="fill:none;stroke:#000;stroke-width:3.91px;"/><path d="M1509.249,1073.274c0.795,-15.079 -2.423,-50.892 -2.423,-73.636" style="fill:none;stroke:#000;stroke-width:3.91px;"/><path d="M1509.094,1054.53c2.055,36.357 19.946,79.249 22.582,85.218c16.844,38.158 37.914,50.955 65.09,54.724c29.192,4.063 75.344,-1.466 81.857,-2.241c6.416,-0.775 42.625,-5.089 80.074,-11.665" style="fill:none;stroke:#000;stroke-width:3.91px;"/><path d="M1758.678,1180.566c10.39,-2.45 27.312,-7.079 29.773,-9.927c3.082,-3.581 4.555,-2.974 3.14,-41.216c-3.857,-104.402 -11.01,-132.214 -11.398,-196.551" style="fill:none;stroke:#000;stroke-width:3.91px;"/><path d="M1583.779,484.437c-0.116,8.587 -3.063,38.137 -11.843,74.746c-0.775,3.225 -2.384,6.325 -12.638,44.881c-6.765,25.446 -14.169,51.206 -19.209,69.07c-5.408,19.184 -7.443,28.294 -11.591,39.247c-12.813,33.844 -21.632,51.981 -23.764,56.358" style="fill:none;stroke:#000;stroke-width:3.91px;"/><path d="M1582.597,313.31c68.657,36.881 90.774,47.164 123.416,59.855c45.92,17.844 78.271,26.912 86.393,32.064c25.024,15.917 30.006,33.258 40.88,67.793c1.628,5.173 27.176,72.694 45.862,134.036c15.391,50.473 33.941,125.512 31.828,194.562c-0.64,20.985 -1.57,37.928 -36.616,66.871c-25.141,20.776 -76.41,51.75 -87.73,58.599c-20.372,12.336 -36.887,22.074 -49.758,29.32c-13.956,7.854 -46.637,25.446 -64.315,33.907" style="fill:none;stroke:#000;stroke-width:3.91px;"/><path d="M1440.903,354.924c-7.269,16.357 -12.968,62.201 -11.514,116.926c0.698,26.053 2.772,60.903 12.91,101.26c3.993,15.896 29.521,117.575 62.125,194.666" style="fill:none;stroke:#000;stroke-width:3.91px;"/><path d="M1429.66,478.51c1.938,5.843 16.67,44.043 39.426,89.364c19.132,38.096 33.068,54.389 35.782,57.719" style="fill:none;stroke:#000;stroke-width:3.91px;"/><path d="M1583.605,316.033c7.715,4.796 20.934,11.351 20.779,52.127c-0.233,65.803 -20.159,115.062 -23.222,123.041c-2.171,5.634 -11.01,28.545 -28.746,60.463c-27.816,50.033 -46.753,73.301 -47.529,73.95" style="fill:none;stroke:#000;stroke-width:3.91px;"/><path d="M1505.644,624.358c-6.338,8.88 -9.168,11.079 -11.533,18.283c-2.365,7.142 -2.559,15.854 -2.597,39.206c-0.039,24.922 -0.252,24.797 -0.194,49.677" style="fill:none;stroke:#000;stroke-width:3.91px;"/><path d="M1441.135,353.751c-2.714,1.592 -2.811,1.969 -23.706,14.932c-26.536,16.482 -35.201,21.802 -50.126,30.053c-23.861,13.152 -34.29,19.624 -43.768,24.776c-18.376,10.011 -32.351,14.472 -37.953,18.451c-8.064,5.759 -12.192,15.037 -20.663,39.038c-12.289,34.787 -10.874,31.017 -16.166,46.829" style="fill:none;stroke:#000;stroke-width:3.91px;"/><path d="M1288.256,462.656c1.105,8.964 4.167,26.556 5.621,34.849c9.905,56.463 14.596,81.511 19.403,94.139" style="fill:none;stroke:#000;stroke-width:1.31px;"/><path d="M1399.363,466.426c6.009,-5.759 8.354,-7.581 14.945,-12.482" style="fill:none;stroke:#000;stroke-width:1.31px;"/><path d="M1396.592,382.548c-4.478,10.869 -8.994,23.058 -28.513,67.458c22.485,12.336 29.657,15.037 31.421,15.791c-13.879,16.88 -21.496,23.184 -32.661,35.101c-0.136,0.147 2.849,20.42 17.019,60.149c15.74,44.127 55.65,135.46 104.4,196.803c3.547,4.482 11.766,13.32 15.798,17.592" style="fill:none;stroke:#000;stroke-width:3.91px;"/><path d="M1494.072,412.015c-15.681,-8.482 -29.211,-19.477 -36.383,-18.241c-6.804,1.173 -10.642,24.168 -9.634,37.949c3.586,49.258 37.236,7.477 46.269,7.288c4.671,-0.105 5.253,3.246 13.297,3.016c6.978,-0.188 8.858,-4.189 13.142,-4.063c6.746,0.209 23.163,18.011 34.774,16.901c5.001,-0.482 9.692,-1.487 10.622,-7.079c0.582,-3.414 0.698,-22.64 0.775,-28.985c0.116,-10.493 0.795,-22.242 -3.004,-26.011c-4.516,-4.461 -13.627,-0.44 -14.732,0.021c-10.138,4.231 -9.324,6.346 -29.696,19.393c-10.448,-5.152 -14.673,-4.964 -25.373,-0.188l-0.058,0Z" style="stroke:#000;stroke-width:1.31px;"/><path d="M1573.991,237.035c0.058,42.179 9.866,88.192 10.428,91.082c0,0.021 -4.051,6.827 -12.948,17.969c-2.946,3.686 -8.471,10.199 -17.91,20.357c-10.642,11.435 -50.126,40.881 -50.126,40.881c0,0 -9.576,-7.33 -29.851,-23.938c-11.107,-9.11 -31.498,-26.786 -31.518,-27.624c-0.097,-4.168 -0.078,-1.759 -0.136,-5.885" style="fill:none;stroke:#000;stroke-width:2.18px;"/><path d="M1581.608,175.651c-12.599,10.325 -12.502,21.655 -12.58,31.771" style="fill:none;stroke:#000;stroke-width:1.31px;"/><path d="M1570.133,199.505c4.613,-0.565 12.658,-4.838 13.646,-5.299" style="fill:none;stroke:#000;stroke-width:1.31px;"/><path d="M1599.054,195.547c-0.116,1.466 -1.085,13.906 -4.497,20.294c-12.367,23.121 -29.386,21.111 -30.781,21.257" style="fill:none;stroke:#000;stroke-width:1.74px;"/><path d="M1365.539,150.75c0.853,-0.461 15.313,-8.712 25.877,-7.372c1.144,0.147 12.735,1.634 12.386,7.937c-0.33,5.801 -7.521,4.063 -11.553,3.958" style="stroke:#000;stroke-width:2.18px;"/><path d="M1393.006,155.336c-7.909,-0.67 -11.107,-0.168 -15.236,0.942c-6.571,1.78 -12.58,6.995 -12.793,4.503c-0.426,-5.131 0.33,-9.236 1.337,-10.409" style="stroke:#000;stroke-width:2.18px;"/><path d="M1408.958,168.028c-3.974,30.305 -10.545,48.86 -12.134,56.672c-1.299,6.325 -2.52,14.493 5.04,16.461c0.019,0 18.705,2.639 28.998,2.869" style="fill:none;stroke:#000;stroke-width:2.18px;"/><path d="M1522.139,92.737c32.506,-15.854 52.937,-46.41 53.673,-47.394c-18.666,-9.215 -15.526,-36.546 -67.222,-44.337c-18.162,-2.744 -62.377,6.367 -62.377,6.367c0,0 -27.796,4.733 -55.069,5.005c-31.537,0.293 -2.539,24.776 53.673,51.311c57.376,27.079 57.162,29.551 76.41,29.53" style="stroke:#000;stroke-width:2.18px;"/><path d="M1376.878,15.855c4.497,-3.372 7.482,-4.105 10.642,-4.398" style="fill:none;stroke:#241e1d;stroke-width:2.18px;"/><path d="M1521.519,92.926c-10.176,4.712 -20.45,5.257 -29.444,1.634c-7.753,-3.121 -9.653,-8.838 -15.158,-8.44c-5.815,0.419 -20.353,11.142 -43.962,10.807c-16.243,-0.23 -28.533,-5.194 -34.677,-7.456c-18.376,-6.765 -24.074,0.147 -28.358,8.754c-2.714,5.424 -6.823,16.859 -11.339,19.163c-5.524,2.806 -48.614,-49.091 -1.047,-81.762c11.63,-8 8.257,-12.042 19.888,-20.105" style="stroke:#000;stroke-width:2.18px;"/><path d="M1386.725,11.478c18.007,-1.906 27.389,-1.173 33.185,-1.361c10.661,-0.335 25.528,-3.728 38.67,-6.325c12.793,-2.534 27.118,-3.833 40.085,-3.791c48.227,0.168 61.233,25.299 71.138,41.614c27.893,3.372 35.627,26.074 38.903,37.719c15.391,54.703 -6.649,107.983 -9.653,116.716c-0.155,-2.827 -1.725,-25.048 -11.708,-30.472c-3.664,-1.99 -15.41,-0.126 -24.656,11.582c-24.617,31.205 2.268,59.751 -13.433,100.297c-1.841,4.775 -13.782,35.603 -35.647,51.876c-3.702,2.744 -25.897,19.289 -52.879,20.126c-1.241,0.042 -45.396,5.843 -66.757,-29.237c-40.841,-67.018 -19.035,-132.905 -35.162,-203.065" style="fill:none;stroke:#000;stroke-width:2.18px;"/><path d="M1238.77,2065.246c0.775,0.901 15.294,10.869 27.719,11.959c8.606,0.754 14.266,1.634 21.555,-1.738c2.597,-1.215 9.11,-4.419 8.664,-10.534c-0.33,-4.482 -6.901,-13.76 -7.676,-14.849l4.982,-1.801c3.412,4.105 16.243,26.032 20.547,39.792c3.489,11.163 4.206,21.76 -0.582,24.985c-6.726,4.545 -18.492,6.807 -41.869,1.319c-53.169,-12.482 -71.002,-33.656 -73.949,-37.425c9.905,-2.639 28.126,-8.461 40.609,-11.728l-0,0.021Z" style="stroke:#000;stroke-width:1.31px;"/><path d="M942.316,2072.555c-0.213,13.131 4.982,19.289 24.326,20.901c13.433,1.11 24.908,-5.655 27.544,-8.712c3.586,-4.147 4.439,-2.45 22.194,-1.215c7.153,0.503 6.997,0.545 13.995,0.942c-5.137,25.236 -30.626,37.677 -35.278,40.043c-2.152,1.089 -15.177,7.707 -28.688,8.608c-21.942,1.487 -29.172,-4.922 -33.01,-17.927c-4.051,-13.718 -1.396,-45.049 -1.008,-45.384c0.64,-0.545 9.168,2.45 9.905,2.723l0.019,0.021Z" style="stroke:#000;stroke-width:1.31px;"/><path d="M1199.285,600.231c0.814,-1.424 6.261,-10.43 13.258,-18.87c8.277,-9.99 8.277,4.231 8.277,5.047c0,13.006 0.174,24.65 0.233,30.933" style="fill:none;stroke:#241e1d;stroke-width:1.31px;"/><path d="M1221.053,617.342c-0.194,-0.126 -21.826,-16.336 -21.768,-16.922" style="fill:none;stroke:#241e1d;stroke-width:1.31px;"/><path d="M1124.368,608.232c-8.587,-11.749 -14.693,-22.493 -16.379,-24.797c-0.233,-0.314 -4.478,-6.115 -4.691,0.168c-0.097,3.058 -0.058,3.141 -0.097,38.745c0,1.822 1.997,0.838 9.576,-4.901c10.874,-8.21 10.913,-8.189 11.591,-9.215Z" style="fill:none;stroke:#241e1d;stroke-width:1.31px;"/><path d="M1125.046,896.367c5.234,-3.581 18.899,-13.257 29.405,-10.849c5.757,1.319 13.53,10.974 -0.717,21.53" style="fill:none;stroke:#241e1d;stroke-width:2.18px;"/><path d="M1219.483,563.769c6.668,1.298 6.842,4.607 6.997,31.122c0.058,11.184 0.388,25.174 0.31,30.703" style="fill:none;stroke:#241e1d;stroke-width:2.18px;"/><path d="M1226.791,624.965c-0.078,10.995 -0.291,28.169 -0.368,30.577c-0.504,16.587 -5.311,30.556 -24.036,46.724" style="fill:none;stroke:#241e1d;stroke-width:2.18px;"/><path d="M1202.445,702.308c-19.364,12.126 -35.026,11.205 -36.344,11.246" style="fill:none;stroke:#241e1d;stroke-width:2.18px;"/><path d="M1171.606,713.429c-9.304,0 -18.511,-0.105 -34.639,-4c-1.764,-0.419 -9.886,-2.388 -19.888,-11.728c-5.912,-5.529 -7.346,-8.754 -13.161,-17.969c-7.269,-11.498 -8.49,-46.745 -8.664,-51.227c-2.307,-56.086 0.756,-62.871 6.784,-63.437c9.672,-0.901 13.123,2.283 39.174,31.519c24.734,-2.136 39.717,-0.126 41.578,0.063c9.653,-11.163 17.058,-18.514 17.658,-19.121c13.801,-13.885 14.77,-13.613 18.686,-13.76" style="fill:none;stroke:#241e1d;stroke-width:2.18px;"/><path d="M1146.795,746.331c3.819,-0.817 28.203,-6.011 48.537,-2.241c3.14,0.586 24.191,4.482 35.084,20.252c10.138,14.681 7.812,28.085 3.508,33.467" style="fill:none;stroke:#241e1d;stroke-width:2.18px;"/><path d="M1219.425,795.966c-2.268,-1.55 -0.019,0.042 -2.268,-1.571" style="fill:none;stroke:#241e1d;stroke-width:2.18px;"/><path d="M1203.375,783.379c-11.611,-9.529 -10.021,-1.655 -32.313,0.984" style="fill:none;stroke:#241e1d;stroke-width:2.18px;"/><path d="M1208.086,738.54c12.677,-0.859 22.718,-1.592 35.22,5.278c7.249,3.979 20.217,13.634 16.282,26.011c-2.752,8.629 -16.224,9.32 -23.338,6.388" style="fill:none;stroke:#241e1d;stroke-width:2.18px;"/><path d="M1111.574,692.653c-12.386,9.822 -13.801,8.65 -17.658,18.388c-4.303,10.89 -30.374,22.807 -52.316,33.572c-42.159,20.671 -61.873,37.174 -66.835,80.254c38.651,-3.937 38.477,-4.922 77.186,-8.691c4.381,-0.419 35.375,-3.456 53.693,-13.11c12.018,-6.346 11.727,-14.786 34.987,-27.666" style="fill:none;stroke:#241e1d;stroke-width:2.18px;"/><path d="M1204.073,701.491c3.179,14.011 4.129,21.948 3.993,37.027" style="fill:none;stroke:#241e1d;stroke-width:2.18px;"/><path d="M1139.487,871.089c-0.95,3.393 -6.494,22.912 -26.032,34.221" style="fill:none;stroke:#241e1d;stroke-width:2.18px;"/><path d="M984.573,930.4c-0.678,3.037 -18.182,72.966 -1.105,114.287c13.762,33.279 38.244,46.996 41.675,49.195c20.198,13.006 47.141,14.158 51.367,14.346c27.312,1.173 43.749,-10.074 50.649,-19.079c9.285,-12.147 7.191,-27.854 -5.699,-29.383c-14.925,-1.78 -17.368,9.047 -38.864,9.927c-3.935,0.168 -29.211,1.215 -47.432,-14.639c-7.075,-6.157 -23.435,-20.42 -25.315,-46.41c-2.19,-30.493 0.31,-41.635 1.163,-45.342" style="fill:none;stroke:#241e1d;stroke-width:2.18px;"/><path d="M1110.954,875.487c3.412,13.99 2.171,34.577 2.016,42.556" style="fill:none;stroke:#241e1d;stroke-width:2.18px;"/><path d="M822.157,1410.312c40.667,-1.34 44.272,8.901 84.493,16.042" style="fill:none;stroke:#241e1d;stroke-width:1.31px;"/><path d="M822.157,1410.207c4.846,7.079 6.746,12.817 10.642,16.775c10.816,10.974 23.338,14.43 44.776,23.687" style="fill:none;stroke:#241e1d;stroke-width:1.31px;"/><path d="M1157.223,268.157c-20.799,-3.518 -27.021,5.466 -23.183,8.44c3.004,2.346 4.012,-1.089 12.987,-1.78c8.064,-0.607 12.754,0.67 13.297,-0.209c1.241,-2.052 -2.559,-5.948 -2.927,-6.325" style="stroke:#000;stroke-width:1.74px;"/><path d="M1163.29,276.974c0,0 15.488,1.089 22.64,18.409c6.203,14.995 3.954,35.31 -10.68,42.724c-3.547,1.801 -15.216,5.068 -20.682,1.382c-2.559,-1.717 -4.923,-5.738 -4.923,-5.738l-4.226,-6.89l-6.687,-10.053c0,0 -5.175,-6.283 -7.114,-9.278c-0.737,0.084 -0.659,0.168 -9.207,1.298c0.058,1.403 -0.039,4.461 0,5.864" style="fill:none;stroke:#241e1d;stroke-width:1.31px;"/><path d="M1122.391,314.19c0.019,3.016 2.869,26.053 -6.707,37.027c-5.389,6.178 -13.433,12.252 -27.35,10.43c-25.8,-3.351 -34.6,-32.86 -35.433,-36.818" style="fill:none;stroke:#241e1d;stroke-width:1.31px;"/><path d="M1052.9,324.85c-18.182,4.063 -27.137,6.974 -29.676,7.581c1.764,-3.958 1.803,-3.874 3.198,-6.639" style="fill:none;stroke:#241e1d;stroke-width:1.31px;"/><path d="M1026.945,325.792c13.026,-3.351 24.869,-6.827 25.412,-6.995c0.31,-3.1 0.446,-17.927 16.554,-25.32c35.899,-16.461 48.343,6.367 51.425,10.911c4.284,-0.859 4.206,-0.984 10.816,-2.011c2.946,-16.147 9.168,-21.927 18.957,-24.022c0.136,-0.021 0.291,-0.063 0.426,-0.084c1.124,-0.23 8.645,-0.984 11.514,-1.047" style="fill:none;stroke:#241e1d;stroke-width:1.31px;"/><path d="M972.846,361.689c14.189,0.901 21.186,-1.822 22.233,21.048" style="fill:none;stroke:#241e1d;stroke-width:1.31px;"/><path d="M1104.635,385.02c31.285,2.22 46.598,-4.293 55.612,-7.749c0.078,4.042 -1.202,12.419 -5.311,17.802c-4.962,6.492 -13.375,9.697 -19.868,9.76c-4.633,0.042 -11.805,-1.655 -19.209,-7.477c-6.765,-5.34 -10.913,-11.456 -11.204,-11.979" style="fill:none;stroke:#000;stroke-width:1.31px;"/><path d="M1131.675,307.739c14.596,17.215 24.171,36.567 24.83,39.876c2.656,13.048 -19.035,12.147 -20.934,12.063" style="fill:none;stroke:#241e1d;stroke-width:1.74px;"/><path d="M1050.593,298.462c-0.833,5.697 2.946,1.759 22.698,-7.623c11.65,-5.529 24.482,-9.718 23.047,-12.733c-2.617,-5.487 -18.899,1.424 -20.411,2.073c-1.551,0.67 -7.792,3.309 -14.867,8.419c-9.517,6.869 -10.138,8.733 -10.525,9.864" style="stroke:#000;stroke-width:1.74px;"/><path d="M1886.959,1883.375c15.042,3.351 17.019,3.204 28.882,14.388" style="fill:none;stroke:#000;stroke-width:1.31px;"/><path d="M1174.881,341.563c25.315,55.164 39.426,81.594 49.467,109.47c2.404,6.681 22.369,62.871 27.292,96.904" style="fill:none;stroke:#000;stroke-width:2.18px;"/><path d="M1044.061,173.745c-24.927,-10.953 -66.641,-2.764 -90.832,7.163c-40.841,16.775 -51.774,32.127 -85.269,78.181c-56.62,77.867 -88.835,131.041 -113.84,191.881c-80.442,195.63 -82.07,329.771 -84.687,377.102c46.695,-27.1 90.192,1.005 125.722,14.283c69.413,25.949 69.645,-0.461 128.3,-24.315c-1.686,-27.917 -12.502,-78.244 -16.747,-131.795c-13.569,-171.21 -5.718,-201.284 -0.659,-218.919" style="fill:none;stroke:#000;stroke-width:2.18px;"/><path d="M946.077,978.108c-52.161,17.906 -56.387,16.943 -110.933,10.681c-24.249,-2.785 -90.173,-11.372 -102.675,12.922c-2.791,-54.683 -0.93,-54.494 0.252,-124.465c-14.538,-5.634 -68.25,-24.901 -63.288,-49.551" style="fill:none;stroke:#000;stroke-width:2.18px;"/><path d="M915.509,1050.948c-27.098,-0.021 -31.266,-2.764 -44.137,-7.016c-31.014,-10.262 -57.628,10.576 -81.237,-8.021c-12.793,-10.053 -14.383,-13.32 -29.424,-17.383c-18.007,-4.859 -26.73,-6.241 -28.203,-16.545" style="fill:none;stroke:#000;stroke-width:2.18px;"/><path id="CARA-A" serif:id="CARA A" d="M1165.209,270.126c-2.656,33.195 3.935,46.012 8.994,68.924c7.947,36.064 3.14,63.395 1.473,70.474c-8.374,35.52 -20.915,43.645 -41.307,47.143c-7.249,1.257 -42.566,0.838 -69.413,-5.738" style="fill:none;stroke:#000;stroke-width:2.18px;"/><path d="M1165.364,267.361c-0.097,5.634 -0.446,12.336 -0.659,14.744c-4.807,-9.529 -11.979,-31.875 -29.754,-50.033c-16.864,-17.236 -35.162,-19.435 -45.28,-20.231c-2.849,20.943 -3.024,28.629 -14.286,47.122c-33.185,54.494 -76.759,67.186 -41.307,121.784c-22.349,-4.838 -24.113,-5.047 -38.961,-22.723c-15.332,-18.241 -31.634,-8.398 -33.204,7.56c-4.167,42.494 22.601,29.802 40.764,50.829c6.765,7.833 13.394,24.985 9.847,46.536c-3.625,22.095 -29.986,31.415 -53.712,28.713c-5.854,-0.67 -31.053,-3.56 -49.758,-21.676c-15.022,-14.555 -23.299,-41.488 -21.787,-57.405c0.795,-8.293 2.714,-25.655 20.682,-43.771c7.657,-7.728 10.622,-12.901 8.393,-23.456c-5.873,-27.708 -7.133,-41.635 -4.148,-58.18c7.734,-42.661 26.866,-63.395 31.828,-69.112c24.54,-28.294 88.758,-53.719 141.152,-44.043c5.486,1.005 43.4,8.021 62.822,32.42c21.303,26.765 18.007,48.672 17.29,62.264" style="stroke:#000;stroke-width:2.18px;"/><path d="M1948.134,2018.647c18.318,-1.215 31.828,-11.728 34.193,-13.571" style="fill:none;stroke:#000;stroke-width:2.18px;"/><path d="M1924.156,1787.686c-1.473,1.801 -8.238,10.095 -17.31,23.268c8.335,8.377 10.409,10.157 15.022,23.708" style="fill:none;stroke:#000;stroke-width:1.31px;"/><path d="M1827.8,1781.152c5.544,6.576 8.587,10.241 15.526,27.959c-1.725,1.298 -11.65,9.885 -15.74,15.959" style="fill:none;stroke:#000;stroke-width:1.31px;"/><path d="M1797.445,1868.527c19.461,-1.236 27.37,0.754 38.321,2.723" style="fill:none;stroke:#000;stroke-width:1.31px;"/><path d="M1794.111,1881.134c6.532,-1.655 11.475,-3.623 37.507,-3.602" style="fill:none;stroke:#000;stroke-width:1.31px;"/><path d="M1800.372,1893.889c11.902,-6.241 14.131,-7.142 25.276,-8.775" style="fill:none;stroke:#000;stroke-width:1.31px;"/><path d="M1896.67,1872.129c9.634,-0.942 17.465,-0.021 30.975,4.251" style="fill:none;stroke:#000;stroke-width:1.31px;"/><path d="M1888.897,1877.825c4.458,-0.063 12.851,-1.592 34.639,6.199" style="fill:none;stroke:#000;stroke-width:1.31px;"/><path id="BRAZO" d="M979.262,668.338c-9.517,53.3 -9.479,122.873 -12.057,157.555c43.167,-3.916 42.586,-6.241 85.501,-10.869c29.153,-3.141 41.733,-2.199 65.342,-23.477c17.387,-15.665 26.691,-17.802 35.414,-21.09c14.073,-5.299 29.192,-15.98 35.317,-9.257c9.033,9.906 -27.331,28.336 -28.339,29.299c0.543,0.168 0.543,0.586 2.733,0.817c14.111,1.382 56.251,-12.796 61.155,-9.718c2.617,1.655 5.447,9.969 -31.983,25.278c0,0 10.797,-2.953 11.029,-3.016c13.627,-4.607 25.741,-15.812 30.045,-10.765c6.164,7.204 -19.015,21.802 -36.131,31.729" style="fill:none;stroke:#000;stroke-width:2.18px;"/><path id="GATO" d="M1896.864,2010.437c-12.929,-5.948 -25.974,-19.037 -31.421,-25.174c-24.074,-27.1 -28.203,-36.001 -28.378,-57.782c-0.058,-7.686 1.745,-14.681 -1.609,-20.922c-8.626,-16.042 -13.2,-13.55 -17.058,-31.875c-2.927,-13.948 0.213,-22.64 0.989,-25.697c3.644,-14.179 1.861,-28.713 1.047,-37.76c-0.213,-2.262 -2.016,-22.367 -0.989,-28.42c0.523,-3.1 2.462,-15.477 13.123,-8.754c6.319,3.979 20.198,19.226 23.803,23.079c4.846,-0.042 21.729,0.251 40.628,0.419c4.148,-3.518 13.51,-11.435 19.752,-16.021c6.978,-5.131 17.523,-11.1 21.07,2.953c4.109,16.357 0.659,34.933 -4.148,51.688c-1.318,4.628 -0.756,21.383 -0.717,42.85" style="fill:none;stroke:#000;stroke-width:2.18px;"/><path id="GATO1" serif:id="GATO" d="M1933.014,1879.773l0.078,3.204c11.165,-7.602 22.601,-7.351 37.585,-7.791c12.871,-0.398 27.389,0.021 39.756,4.272c18.124,6.22 25.005,8.65 37.003,26.409c1.745,2.576 2.152,1.864 5.098,2.031" style="fill:none;stroke:#000;stroke-width:2.18px;"/><path id="GATO2" serif:id="GATO" d="M2053.406,1907.732c6.358,-1.424 16.844,-2.869 39.833,-26.786c2.946,-3.058 13.472,-14.535 11.572,-50.033c-0.698,-12.922 -9.052,-27.875 -10.273,-30.074c-13.821,-24.713 -20.663,-21.236 -21.71,-37.007c-0.097,-1.361 -0.892,-13.404 12.25,-10.618c6.261,1.319 14.577,5.697 27.195,23.289c6.183,8.629 17.387,19.561 20.237,57.51c0.388,5.257 5.486,35.624 -15.41,62.348c-23.997,30.682 -44.776,31.917 -57.259,33.781c4.516,28.043 -0.562,46.431 -3.838,55.96c-5.718,16.692 -7.579,16.357 -7.657,36.085c-0.019,4.859 10.176,8.44 8.335,23.247c-1.008,8.084 -7.947,21.948 -13.123,34.347c-0.93,2.241 -8.509,20.399 -17.969,23.77c-0.659,0.23 -25.063,4.356 -27.505,-8.88c-1.434,-7.854 5.369,-10.074 12.483,-14.451c6.804,-4.189 7.424,-9.508 8.703,-14.765c6.028,-24.797 -20.14,-21.592 -30.723,-42.85c-8.916,-17.906 -8.102,-23.833 1.822,-47.52" style="fill:none;stroke:#000;stroke-width:2.18px;"/><path id="GATO3" serif:id="GATO" d="M1996.496,2034.543c0.252,9.508 -2.229,15.519 -9.168,26.514c-1.105,1.759 -9.168,15.728 -14.266,21.488c-2.908,3.288 -4.691,4.712 -15.856,4.503c-8.781,-0.147 -14.693,-0.607 -17.6,-5.173c-3.799,-5.969 0.058,-11.582 0.601,-12.356c3.799,-5.55 10.487,-2.429 17.465,-12.126c10.991,-15.288 3.218,-21.299 -10.002,-38.619l-5.66,0c-1.609,3.539 -9.052,32.567 -15.604,54.138c-4.303,14.158 -7.986,27.415 -14.228,34.116c-3.76,4.021 -15.313,8.147 -23.939,5.592c-11.94,-3.539 -9.517,-13.843 -9.517,-15.645" style="fill:none;stroke:#000;stroke-width:2.18px;"/><path d="M1878.837,2095.571c1.803,-6.576 7.831,-9.341 8.723,-9.885c5.912,-3.518 8.451,-11.54 8.82,-12.733c0.989,-3.1 0.019,-55.206 0.349,-62.159" style="fill:none;stroke:#000;stroke-width:2.18px;"/><path d="M1021.266,559.35c4.923,-0.042 21.07,-0.188 61.485,4.733" style="fill:none;stroke:#000;stroke-width:2.18px;"/><path d="M1137.238,558.24c11.998,-4.754 11.708,-5.005 24.404,-7.644" style="fill:none;stroke:#000;stroke-width:2.18px;"/><path d="M887.519,1425.286c8.005,9.529 17.058,32.692 17.542,33.844" style="fill:none;stroke:#000;stroke-width:2.24px;"/><path d="M1257.727,1491.466c0,110.496 -2.19,172.844 3.121,265.391c4.865,84.652 14.77,159.775 22.156,239.652" style="fill:none;stroke:#000;stroke-width:2.18px;"/><path d="M1221.867,809.663c2.52,-1.298 7.094,-2.031 3.741,5.047c-3.683,7.77 -16.379,22.451 -30.704,28.65" style="fill:none;stroke:#000;stroke-width:2.18px;"/><path id="BRAZO1" serif:id="BRAZO" d="M1010.217,471.075c-2.171,59.311 -41.5,66.809 -70.285,77.615c-7.153,2.681 -47.975,18.011 -68.521,70.516c-0.388,0.963 -42.256,133.827 -15.332,263.527c16.457,79.333 51.832,73.971 113.394,52.023c62.435,-22.263 89.32,-40.546 113.995,-51.499c30.626,-13.571 60.458,-12.503 87.556,-16.859c33.999,-5.466 46.094,-25.174 48.556,-29.195c3.799,-6.199 9.517,-15.917 9.091,-19.687c-0.252,-2.241 -2.617,-2.157 -3.915,-0.984" style="fill:none;stroke:#000;stroke-width:2.18px;"/><path d="M600.059,1701.128c5.912,14.932 10.06,28.545 7.23,41.321c-0.814,3.665 -1.008,3.581 -14.053,44.504" style="fill:none;stroke:#000;stroke-width:1.31px;"/><path d="M413.686,1671.808c3.043,11.875 2.849,11.749 2.946,24.776" style="fill:none;stroke:#000;stroke-width:1.31px;"/><path d="M757.804,1475.717c0.892,13.529 1.997,13.236 10.021,23.666" style="fill:none;stroke:#000;stroke-width:1.31px;"/><path d="M719.327,1337.849c0.872,16.294 0.523,16.482 -7.249,30.556" style="fill:none;stroke:#000;stroke-width:1.31px;"/><path d="M709.771,1377.012c5.195,2.178 5.331,1.738 9.13,5.885" style="fill:none;stroke:#000;stroke-width:1.31px;"/><path d="M748.461,1445.454c5.311,9.613 4.652,9.864 6.242,20.943" style="fill:none;stroke:#000;stroke-width:1.31px;"/><path d="M615.76,1505.226c-6.183,9.466 -6.28,9.236 -7.463,20.901" style="fill:none;stroke:#000;stroke-width:1.31px;"/><path d="M609.189,1533.918c-7.54,18.618 -0.291,19.289 -0.174,39.603" style="fill:none;stroke:#000;stroke-width:1.31px;"/><path d="M415.159,1726.616c-0.795,15.498 -1.299,15.309 -5.311,30.179" style="fill:none;stroke:#000;stroke-width:1.31px;"/><path d="M699.924,1801.341c3.508,-15.351 3.857,-15.226 13.278,-29.153" style="fill:none;stroke:#000;stroke-width:1.31px;"/><path d="M720.975,1754.931c17.077,-27.561 23.396,-27.268 31.421,-39.792" style="fill:none;stroke:#000;stroke-width:1.31px;"/><path d="M738.614,1570.024c15.526,26.786 20.237,41.886 22.892,78.809" style="fill:none;stroke:#000;stroke-width:1.31px;"/><path d="M733.69,1578.988c10.855,26.158 11.456,25.99 23.512,37.237" style="fill:none;stroke:#000;stroke-width:1.31px;"/><path id="PERRO" d="M255.205,1776.796c-6.145,26.598 -15.449,40.001 -32.022,56.672c-0.194,-6.765 0,-6.723 -1.085,-17.048c-8.587,18.074 -10.545,26.682 -33.127,38.766c5.311,-9.362 5.331,-9.089 10.235,-18.472c-12.173,10.786 -36.034,33.3 -80.83,35.184c12.522,-5.068 12.929,-4.084 25.489,-14.032c-7.753,4.775 -16.534,14.555 -58.519,15.184c2.927,-2.974 3.489,-2.115 10.293,-10.451c-1.299,-0.105 -54.042,-0.042 -82.613,-39.792c-4.827,-6.702 -12.134,-15.163 -13.026,-46.913c7.56,2.848 55.883,21.069 99.593,11.163c53.964,-12.231 100.95,-71.877 103.702,-75.207c21.768,-26.242 36.15,-70.788 55.747,-103.962c21.283,-36.022 61.95,-73.908 74.491,-81.05c17.794,-10.136 59.799,-35.897 177.38,-30.347c44.582,2.094 63.191,-17.844 91.006,-19.435c37.333,-2.115 29.502,-21.048 52.704,-31.855c7.017,-3.267 18.182,2.262 15.914,-23.163c-0.485,-5.361 21.438,-54.557 23.493,-59.206c17.058,-38.284 8.413,-48.944 6.067,-55.52c-6.881,-19.393 -0.698,-79.5 4.691,-122.559c1.706,-13.613 3.974,-40.944 14.305,-40.001c14.131,1.298 28.998,27.708 42.063,50.201c5.699,9.822 22.718,50.389 27.583,50.578c13.123,0.461 15.216,1.215 20.12,-11.561c23.474,-61.028 33.495,-113.721 50.96,-88.192c22.214,32.504 23.105,136.654 25.47,140.822c9.556,16.734 7.172,17.571 8.82,37.237c0.698,8.356 40.182,22.221 63.927,41.698c10.099,8.273 -2.481,38.829 -9.672,45.803c-14.828,14.409 -35.162,9.257 -38.341,12c-13.181,11.393 18.55,4.44 12.057,64.065c-0.911,8.44 -5.486,15.142 -15.972,13.299c-18.531,-3.267 -18.376,-20.231 -26.09,-25.153c-5.951,-3.791 -8.626,-2.953 -20.295,-4.377c-1.318,17.529 -9.401,108.234 -4.051,139.586c1.454,8.524 8.083,36.546 1.919,49.803c-45.241,97.009 -54.429,178.017 -63.656,251.339c-11.591,92.087 -2.849,105.7 43.497,128.402c14.034,6.869 17.91,47.646 -18.783,46.871c-46.269,-0.984 -48.11,-6.681 -69.82,-50.62c-24.52,-49.614 -20.605,-187.525 -25.8,-243.464c-7.676,2.429 -15.332,4.88 -23.008,7.309c-3.276,12.147 -41.055,132.026 -20.547,225.872c10.622,48.588 34.348,34.556 40.26,64.212c7.308,36.588 -54.642,27.226 -66.37,17.676c-4.071,-3.309 -7.676,-9.864 -8.354,-11.686c-59.895,-160.11 -5.796,-166.079 -36.829,-260.931c-12.309,-37.635 -3.702,-48.169 -27.777,-53.112c-14.499,-2.974 -19.829,-13.131 -26.769,5.299c-37.449,99.585 -95.581,84.485 -69.355,149.89c30.374,75.772 67.145,42.263 76.275,75.982c7.443,27.519 -6.746,22.598 -32.603,27.708c-38.477,7.602 -48.517,-38.389 -107.618,-134.287c-19.054,-30.912 3.76,-34.493 14.266,-55.122c24.346,-47.75 -1.085,-69.301 -24.249,-96.862c-72.379,142.623 -116.263,112.904 -136.81,163.587c-4.633,11.414 -16.069,77.385 -13.355,102.642c2.229,20.713 24.385,9.32 34.716,31.75c11.533,25.048 -35.026,33.886 -55.321,26.828c-14.073,-4.901 -16.883,-13.864 -19.248,-67.458c-3.896,-88.108 -4.516,-89.113 -2.19,-124.758c2.055,-31.792 47.567,-20.441 35.375,-126.057c-11.32,-98.077 24.986,-148.361 32.371,-158.602" style="fill:none;stroke:#000;stroke-width:2.24px;"/><path id="DETALLES" d="M844.216,1411.987c38.205,31.771 38.612,48.651 42.101,70.39" style="fill:none;stroke:#000;stroke-width:2.24px;"/><path d="M1055.362,974.276c-10.7,-1.948 -30.684,-5.445 -51.812,-29.53c-0.465,-0.545 -4.497,-4.964 -1.57,-7.142c4.671,-3.477 20.101,10.89 43.633,13.173c22.543,2.178 28.668,-5.32 28.261,-8.398c-0.407,-3.1 -8.393,-1.906 -17.116,-3.623c-10.138,-1.99 -16.437,-4.042 -19.035,-9.634c-4.807,-10.388 12.134,-9.948 34.038,-9.718c2.733,0.021 41.636,0.901 53.654,-1.529c10.913,-2.22 24.908,-7.246 40.163,-18.367c27.699,-20.189 45.784,-38.431 80.636,-61.342c54.546,-35.855 74.608,-38.137 74.608,-38.137" style="fill:none;stroke:#000;stroke-width:2.18px;"/><path d="M1886.843,2005.39c-3.101,13.173 -6.203,26.346 -9.304,39.52c-7.308,31.226 -8.568,36.399 -11.882,45.195c-3.722,9.906 -11.339,10.932 -26.672,10.032c-9.634,-0.565 -24.288,-18.556 -7.598,-27.477c3.857,-2.073 7.87,-2.157 9.905,-3.393c4.652,-2.806 4.264,-8.964 4.109,-15.812c-0.407,-17.32 -1.144,-62.243 -0.833,-94.118" style="fill:none;stroke:#000;stroke-width:2.18px;"/><path id="VESTIDO" d="M967.961,824.553c2.597,-39.101 3.315,-114.768 9.672,-125.512c5.137,-8.67 26.168,-49.97 89.184,-48.923c10.293,0.168 21.012,3.393 29.541,6.053" style="fill:none;stroke:#000;stroke-width:3.91px;"/><path id="VESTIDO1" serif:id="VESTIDO" d="M1227.954,634.033c60.341,-8.21 71.603,34.347 75.616,58.976c10.7,65.447 -29.948,108.402 -41.132,156.717c-8.839,38.221 18.725,88.631 44.059,212.07c7.792,37.949 41.19,217.662 45.648,371.259c3.392,117.072 5.582,204.133 11.611,298.356c5.699,89.218 25.645,273.706 25.645,273.706" style="fill:none;stroke:#000;stroke-width:3.91px;"/><path id="VESTIDO2" serif:id="VESTIDO" d="M1389.42,2000.112c0,0 -136.616,81.93 -254.042,81.93c-117.426,0 -136.771,4.189 -194.844,-11.163c-58.073,-15.33 -143.013,-63.416 -143.013,-63.416" style="fill:none;stroke:#000;stroke-width:4.36px;"/><path id="VESTIDO3" serif:id="VESTIDO" d="M873.33,1178.178c13.724,-97.616 84.551,-189.326 80.694,-236.699" style="fill:none;stroke:#000;stroke-width:4.36px;"/><path id="DETALLES1" serif:id="DETALLES" d="M908.492,851.57c23.222,-23.247 57.046,-25.823 59.702,-26.179" style="fill:none;stroke:#000;stroke-width:2.18px;"/><path d="M1129.737,458.321c-3.954,41.74 -0.795,54.473 37.973,56.337c11.824,0.565 70.149,-6.639 129.793,90.202c31.324,50.871 52.123,125.805 59.934,163.838c12.677,61.761 14.402,92.024 -10.273,114.308c-29.638,26.744 -96.608,52.881 -107.773,57.384c-45.183,18.137 -62.435,22.451 -75.325,26.2c-46.715,13.529 -51.522,26.158 -85.172,25.949c-4.051,-0.021 -29.986,-1.152 -49.564,-14.912c-19.907,-13.99 -21.962,-18.807 -21.07,-21.739c0.62,-2.052 2.093,-1.822 2.462,-1.78c0.989,0.105 2.636,0.796 4.167,1.843" style="fill:none;stroke:#000;stroke-width:2.18px;"/></g></svg>